PathFileType	4	(X/Y/Z)	Walk2.trc
DataRate	CameraRate	NumFrames	NumMarkers	Units	OrigDataRate	OrigDataStartFrame	OrigNumFrames
200.000000	200.000000	7	59	mm	200.000000	251	381
Frame#	Times		LFHD		RFHD		LBHD		RBHD		C7		T10		CLAV		STRN		RBack		LASI		RASI		LPSI		RPSI		RACR1		RUA1		RElbow		RElbowM		RFA1		RWRR		RWRU		RCAR		LACR1		LUA1		LElbow		LElbowM		LFA1		LWRR		LWRU		LCAR		RTH1		RTH3		RTH2		RTH4		RLFC		RTB1		RTB3		RTB2		RTB4		RLMAL		RMMAL		RCAL		RMT1		RMT5		RToe		LTH1		LTH3		LTH2		LTH4		LLFC		LTB1		LTB3		LTB2		LTB4		LLMAL		LCAL		LMT5		LToe		LMMAL		LMT1
			X1	Y1	Z1	X2	Y2	Z2	X3	Y3	Z3	X4	Y4	Z4	X5	Y5	Z5	X6	Y6	Z6	X7	Y7	Z7	X8	Y8	Z8	X9	Y9	Z9	X10	Y10	Z10	X11	Y11	Z11	X12	Y12	Z12	X13	Y13	Z13	X14	Y14	Z14	X15	Y15	Z15	X16	Y16	Z16	X17	Y17	Z17	X18	Y18	Z18	X19	Y19	Z19	X20	Y20	Z20	X21	Y21	Z21	X22	Y22	Z22	X23	Y23	Z23	X24	Y24	Z24	X25	Y25	Z25	X26	Y26	Z26	X27	Y27	Z27	X28	Y28	Z28	X29	Y29	Z29	X30	Y30	Z30	X31	Y31	Z31	X32	Y32	Z32	X33	Y33	Z33	X34	Y34	Z34	X35	Y35	Z35	X36	Y36	Z36	X37	Y37	Z37	X38	Y38	Z38	X39	Y39	Z39	X40	Y40	Z40	X41	Y41	Z41	X42	Y42	Z42	X43	Y43	Z43	X44	Y44	Z44	X45	Y45	Z45	X46	Y46	Z46	X47	Y47	Z47	X48	Y48	Z48	X49	Y49	Z49	X50	Y50	Z50	X51	Y51	Z51	X52	Y52	Z52	X53	Y53	Z53	X54	Y54	Z54	X55	Y55	Z55	X56	Y56	Z56	X57	Y57	Z57	X58	Y58	Z58	X59	Y59	Z59

251	1.255	216.77	1443.2	-28.166	207.95	1433.2	67.941	94.227	1359.2	-57.698	82.629	1353.4	74.488	55.865	1271.8	10.637	-29.124	1074.7	26.694	197.38	1188.6	9.7284	249.09	1081.5	15.476	9.4835	1152.1	131.2	158.34	814.55	-140.89	190.59	830.1	170.56	-88.056	847.75	-21.843	-75.697	852.97	83.554	127.57	1219.1	189.48	141.14	1081.2	274.05	131.37	958.81	314.95	75.259	923.22	249.48	192.11	843.22	325.15	209.99	742.29	295.61	175.83	745.36	359.86	222.51	689.1	351.09	114.42	1211.4	-177.06	127.56	1043.8	-241.41	94.153	925.56	-252.65	74.173	904.4	-182.64	158.22	836.25	-284.63	205.67	732.09	-264.06	157.71	725.09	-304.64	202.34	681.89	-308.98	123.95	640.85	227.41	137.83	475.37	175.09	185.4	567.67	187.43	128.63	556.98	204.88	127.8	390.4	149.85	173.28	289.37	91.005	148.12	121.01	67.306	125.07	203.07	131.44	157.77	204.29	79.385	98.388	58.544	103.52	107.42	68.775	19.984	40.964	31.559	57.999	207.6	29.197	31.907	183.43	23.421	125.05	263.25	32.548	63.207	120.56	656.31	-193.9	156.59	489.27	-159.35	186.55	591.91	-149.68	138.8	572.83	-179.95	187.25	392.76	-130.05	148.49	296.66	-63.062	19.454	185.68	-45.518	61.059	255.34	-110.42	79.849	241.92	-52.761	-73.81	169.8	-71.183	-108.65	189.49	-23.845	-49.077	79.678	-89.01	28.483	39.245	-47.653	-40.267	165.12	4.0567	-2.3829	62.615	-15.259
252	1.26	221.96	1443.7	-28.371	213.16	1433.6	67.735	99.436	1359.6	-57.9	87.858	1353.8	74.28	61.116	1272.2	10.488	-23.82	1075	26.902	202.6	1189	9.4669	254.29	1082	14.93	14.832	1152.5	131.23	163.6	815.32	-141.05	195.3	830.52	171.23	-82.776	848.5	-21.778	-70.532	853.42	83.496	132.9	1219.7	189.27	146.74	1081.9	274.01	137.68	959.53	315.06	81.325	923.74	249.89	198.99	844.18	324.89	217.36	743.44	295.21	183.3	746.19	359.53	230.37	690.3	350.6	119.28	1211.7	-177.22	132.04	1044.1	-241.59	98.484	925.96	-252.61	78.429	904.95	-182.62	161.78	836.26	-284.82	208.43	731.64	-264.32	160.4	725.14	-304.92	204.53	681.25	-309.12	127.72	640.79	227.56	139.93	475.21	175.08	188.58	566.95	187.95	131.49	556.84	204.94	129.93	390.27	149.75	174.79	288.94	90.865	148.57	120.72	67.161	126.09	202.95	131.33	158.77	203.95	79.261	98.506	58.574	103.46	107.54	68.721	19.891	41.005	31.631	57.993	207.64	29.159	31.864	183.44	23.429	125.01	263.36	32.483	63.236	126.3	657.35	-193.92	164.29	490.79	-159.13	193.15	593.77	-149.68	145.5	574.09	-179.83	196.13	394.68	-129.76	159.18	298.05	-62.73	32.373	184.58	-44.91	72.366	255.11	-109.86	91.557	241.99	-52.313	-60.59	166.73	-70.337	-95.981	185.25	-22.81	-33.196	77.554	-88.453	45.81	39.373	-47.434	-26.775	162.74	4.8342	14.251	61.915	-14.992
253	1.265	227.13	1444.1	-28.619	218.35	1434	67.487	104.63	1360	-58.132	93.072	1354.2	74.044	66.358	1272.5	10.326	-18.521	1075.4	27.108	207.81	1189.4	9.1885	259.48	1082.4	14.35	20.183	1153	131.26	168.86	816.09	-141.22	199.99	830.89	171.92	-77.515	849.25	-21.667	-65.345	853.85	83.487	138.24	1220.3	189.04	152.3	1082.6	273.96	143.96	960.24	315.16	87.397	924.23	250.27	205.85	845.13	324.65	224.72	744.59	294.82	190.75	747.01	359.21	238.22	691.51	350.12	124.15	1212	-177.4	136.55	1044.5	-241.79	102.85	926.34	-252.61	82.701	905.47	-182.65	165.38	836.27	-285.03	211.23	731.2	-264.63	163.12	725.18	-305.26	206.75	680.62	-309.32	131.58	640.73	227.68	142.12	475.09	175.03	191.82	566.26	188.37	134.45	556.73	204.97	132.05	390.13	149.64	176.26	288.5	90.706	149.01	120.44	67.006	127.12	202.82	131.21	159.74	203.61	79.121	98.628	58.607	103.39	107.66	68.663	19.805	41.054	31.711	57.987	207.68	29.118	31.817	183.45	23.435	124.97	263.47	32.413	63.272	131.98	658.32	-193.96	171.9	492.26	-158.91	199.68	595.56	-149.73	152.13	575.32	-179.73	204.89	396.56	-129.46	169.86	299.39	-62.394	45.497	183.29	-44.324	83.768	254.73	-109.31	103.38	241.94	-51.874	-47.094	163.34	-69.54	-83.028	180.63	-21.828	-16.951	75.185	-87.905	63.478	39.457	-47.181	-13.026	160.11	5.5856	31.204	61.099	-14.71
254	1.27	232.28	1444.4	-28.909	223.53	1434.4	67.2	109.81	1360.3	-58.391	98.275	1354.6	73.783	71.589	1272.9	10.153	-13.226	1075.7	27.31	213.02	1189.8	8.8949	264.68	1082.7	13.741	25.537	1153.4	131.28	174.13	816.85	-141.39	204.68	831.2	172.62	-72.272	850	-21.515	-60.136	854.26	83.521	143.58	1220.8	188.8	157.84	1083.3	273.9	150.22	960.93	315.26	93.474	924.7	250.63	212.68	846.06	324.41	232.06	745.74	294.45	198.17	747.81	358.88	246.05	692.72	349.65	129.04	1212.2	-177.57	141.1	1044.7	-241.99	107.25	926.69	-252.64	86.993	905.94	-182.7	169	836.27	-285.27	214.06	730.76	-265.01	165.87	725.23	-305.65	209	680	-309.6	135.53	640.67	227.78	144.42	474.98	174.96	195.13	565.61	188.71	137.51	556.64	204.97	134.14	390	149.51	177.71	288.08	90.535	149.46	120.15	66.845	128.13	202.69	131.09	160.69	203.27	78.971	98.754	58.641	103.3	107.79	68.602	19.724	41.11	31.798	57.983	207.74	29.073	31.765	183.47	23.44	124.93	263.6	32.337	63.315	137.61	659.24	-194.04	179.41	493.69	-158.69	206.14	597.28	-149.83	158.69	576.48	-179.66	213.5	398.39	-129.14	180.51	300.69	-62.054	58.82	181.83	-43.767	95.26	254.19	-108.78	115.31	241.79	-51.447	-33.321	159.65	-68.801	-69.778	175.65	-20.901	-0.36688	72.612	-87.395	81.446	39.514	-46.941	0.98302	157.23	6.2958	48.458	60.182	-14.452
255	1.275	237.42	1444.7	-29.238	228.7	1434.7	66.877	114.97	1360.6	-58.677	103.47	1354.9	73.497	76.809	1273.1	9.9733	-7.9367	1076	27.508	218.22	1190.1	8.5875	269.86	1083.1	13.109	30.894	1153.8	131.3	179.38	817.59	-141.57	209.38	831.45	173.32	-67.045	850.74	-21.326	-54.907	854.64	83.595	148.93	1221.3	188.54	163.34	1084	273.84	156.46	961.59	315.36	99.557	925.14	250.97	219.49	846.99	324.18	239.39	746.87	294.08	205.56	748.61	358.56	253.86	693.92	349.2	133.94	1212.4	-177.75	145.7	1045	-242.19	111.68	927.02	-252.69	91.311	906.37	-182.78	172.67	836.26	-285.55	216.94	730.32	-265.44	168.67	725.27	-306.08	211.29	679.4	-309.93	139.57	640.61	227.85	146.85	474.89	174.86	198.52	564.99	188.95	140.69	556.56	204.95	136.22	389.86	149.38	179.14	287.65	90.356	149.9	119.88	66.682	129.14	202.56	130.97	161.64	202.93	78.817	98.884	58.677	103.21	107.91	68.537	19.649	41.172	31.894	57.981	207.8	29.026	31.708	183.49	23.443	124.89	263.73	32.258	63.367	143.2	660.09	-194.15	186.82	495.05	-158.49	212.54	598.93	-149.98	165.18	577.59	-179.62	221.97	400.17	-128.8	191.12	301.93	-61.712	72.334	180.22	-43.243	106.83	253.52	-108.28	127.33	241.53	-51.036	-19.273	155.69	-68.128	-56.222	170.35	-20.034	16.535	69.88	-86.953	99.678	39.559	-46.759	15.257	154.15	6.9489	65.997	59.179	-14.254
256	1.28	242.55	1445	-29.605	233.85	1435.1	66.519	120.13	1360.8	-58.987	108.65	1355.2	73.19	82.019	1273.4	9.7868	-2.6512	1076.2	27.703	223.42	1190.4	8.268	275.05	1083.4	12.458	36.254	1154.2	131.33	184.64	818.3	-141.76	214.09	831.64	174	-61.832	851.44	-21.109	-49.659	855	83.701	154.28	1221.8	188.28	168.83	1084.7	273.77	162.67	962.23	315.45	105.64	925.56	251.28	226.28	847.89	323.97	246.7	747.99	293.72	212.94	749.38	358.24	261.64	695.1	348.76	138.85	1212.6	-177.93	150.33	1045.1	-242.39	116.14	927.3	-252.77	95.656	906.75	-182.88	176.37	836.24	-285.85	219.86	729.88	-265.94	171.5	725.31	-306.57	213.62	678.8	-310.34	143.72	640.54	227.88	149.41	474.81	174.73	202	564.38	189.09	144	556.49	204.9	138.27	389.72	149.24	180.55	287.23	90.177	150.34	119.61	66.521	130.14	202.44	130.84	162.56	202.6	78.66	99.018	58.715	103.12	108.04	68.47	19.579	41.237	31.999	57.978	207.87	28.976	31.649	183.5	23.446	124.85	263.88	32.175	63.426	148.76	660.87	-194.28	194.11	496.35	-158.28	218.87	600.48	-150.16	171.61	578.62	-179.6	230.29	401.88	-128.44	201.68	303.12	-61.37	86.033	178.47	-42.76	118.48	252.72	-107.8	139.43	241.17	-50.646	-4.9496	151.49	-67.528	-42.349	164.76	-19.23	33.733	67.028	-86.602	118.14	39.611	-46.672	29.799	150.86	7.5296	83.803	58.111	-14.145
257	1.285	247.66	1445.3	-30.004	238.99	1435.4	66.129	125.27	1361	-59.317	113.82	1355.4	72.864	87.219	1273.5	9.5938	2.6303	1076.4	27.894	228.62	1190.6	7.938	280.23	1083.6	11.794	41.615	1154.5	131.35	189.87	818.99	-141.95	218.82	831.77	174.66	-56.632	852.1	-20.871	-44.395	855.32	83.834	159.64	1222.3	188	174.31	1085.3	273.7	168.86	962.85	315.55	111.74	925.93	251.57	233.05	848.77	323.76	254	749.08	293.37	220.3	750.14	357.92	269.41	696.27	348.33	143.77	1212.7	-178.12	155	1045.3	-242.59	120.61	927.56	-252.88	100.03	907.07	-183	180.11	836.2	-286.18	222.82	729.44	-266.49	174.38	725.34	-307.1	216	678.22	-310.82	147.98	640.45	227.89	152.1	474.72	174.58	205.58	563.8	189.13	147.45	556.42	204.81	140.3	389.58	149.09	181.96	286.81	90	150.79	119.34	66.364	131.12	202.31	130.72	163.49	202.27	78.505	99.155	58.755	103.01	108.18	68.401	19.515	41.306	32.116	57.976	207.94	28.924	31.586	183.53	23.449	124.81	264.02	32.09	63.494	154.3	661.58	-194.43	201.3	497.58	-158.08	225.14	601.94	-150.38	177.97	579.58	-179.61	238.44	403.52	-128.06	212.17	304.27	-61.032	99.908	176.61	-42.327	130.2	251.8	-107.36	151.59	240.73	-50.284	9.6488	147.09	-67.009	-28.151	158.92	-18.494	51.209	64.098	-86.364	136.8	39.691	-46.71	44.612	147.4	8.0241	101.86	56.999	-14.15
